<svg width="44" height="9" viewBox="0 0 44 9" fill="none" xmlns="http://www.w3.org/2000/svg">
<path fill-rule="evenodd" clip-rule="evenodd" d="M7.49474 4.70702C7.49474 5.68528 7.2271 6.46788 6.67967 7.05484C6.07142 7.74614 5.25635 8.09831 4.27097 8.09831C3.32209 8.09831 2.50703 7.74614 1.83794 7.04179C1.51642 6.70204 1.26312 6.29533 1.09366 5.8467C0.924203 5.39807 0.842155 4.91701 0.852564 4.43311C0.852564 3.38964 1.18102 2.50268 1.85011 1.79834C2.50702 1.09399 3.30993 0.741821 4.27097 0.741821C4.73325 0.741821 5.18336 0.846168 5.60914 1.04182C6.04708 1.23747 6.38771 1.49834 6.64317 1.82443L6.05925 2.43747C5.83981 2.16192 5.56475 1.94356 5.25491 1.79892C4.94507 1.65429 4.60859 1.58718 4.27097 1.60269C3.57756 1.60269 2.98146 1.86356 2.47053 2.38529C1.97176 2.90703 1.71629 3.58529 1.71629 4.42007C1.71629 5.25484 1.95959 5.9331 2.47053 6.45484C2.98146 6.97658 3.56539 7.23744 4.27097 7.23744C5.00088 7.23744 5.60914 6.97658 6.09575 6.45484C6.41204 6.10267 6.60668 5.6331 6.65534 5.02006H4.27097V4.17224H7.44607C7.48257 4.35485 7.49474 4.53746 7.49474 4.69398" fill="white"/>
<path fill-rule="evenodd" clip-rule="evenodd" d="M7.49452 4.7071H7.38503C7.38503 5.67232 7.1174 6.40275 6.60646 6.97666C5.9982 7.64187 5.2318 7.981 4.27075 7.981C3.3462 7.981 2.56763 7.64187 1.92288 6.96361C1.60745 6.63389 1.35919 6.23763 1.19377 5.79986C1.02836 5.36208 0.949386 4.89229 0.961831 4.42015C0.961831 3.40276 1.27812 2.56798 1.93504 1.87668C2.23938 1.54571 2.60348 1.28478 3.00509 1.10985C3.4067 0.93492 3.83737 0.849663 4.27075 0.859294C4.72087 0.859294 5.15881 0.950597 5.57243 1.14625C5.98604 1.3419 6.30233 1.58972 6.5578 1.90277L6.64296 1.82451L6.5578 1.74625L5.98604 2.35929L6.05903 2.43755L6.14419 2.37233C5.69407 1.78538 5.04932 1.48538 4.27075 1.48538C3.54085 1.48538 2.92042 1.75929 2.39732 2.30711C1.87422 2.84189 1.60658 3.55928 1.60658 4.42015C1.60658 5.28101 1.87422 5.98536 2.39732 6.53318C2.92042 7.081 3.55301 7.35492 4.27075 7.35492C5.02499 7.35492 5.66975 7.081 6.18068 6.53318C6.52131 6.16796 6.71595 5.65927 6.76461 5.03319V4.90275H4.3924V4.28971H7.45802V4.17232L7.34854 4.19841C7.38503 4.36797 7.3972 4.53754 7.3972 4.7071H7.61617C7.61617 4.52449 7.60401 4.34189 7.56751 4.15928L7.55534 4.05493H4.1491V5.13753H6.64296V5.02014H6.52131C6.48481 5.6071 6.30234 6.05057 6.01037 6.36362C5.53593 6.87231 4.96417 7.12013 4.25859 7.12013C3.5895 7.12013 3.01774 6.85927 2.53114 6.36362C2.04453 5.86797 1.80122 5.22884 1.80122 4.42015C1.80122 3.61145 2.04453 2.98537 2.53114 2.46363C3.01774 1.96798 3.5895 1.72016 4.25859 1.72016C4.9885 1.72016 5.5481 1.98103 5.96171 2.51581L6.04687 2.62015L6.70379 1.90277L6.77677 1.83755L6.71595 1.74625C6.42451 1.38567 6.05769 1.1041 5.64541 0.92451C5.21064 0.72651 4.74312 0.624481 4.27075 0.624512C3.29754 0.624512 2.44598 0.989728 1.77689 1.72016C1.44218 2.06828 1.17769 2.48639 0.999823 2.94858C0.821956 3.41077 0.734495 3.90719 0.742857 4.4071C0.742857 5.47666 1.08348 6.3897 1.77689 7.12013C2.10224 7.47269 2.49115 7.7505 2.91991 7.93663C3.34866 8.12276 3.80829 8.2133 4.27075 8.20274C5.28046 8.20274 6.11985 7.83752 6.75244 7.12013L6.67945 7.04187L6.75244 7.13318C7.32421 6.52014 7.604 5.6984 7.604 4.69406H7.49452V4.7071ZM12.5431 1.75929H9.55043V4.00276H12.2511V4.83754H9.55043V7.081H12.5431V7.94187H8.71103V0.898424H12.5431V1.75929" fill="white"/>
<path fill-rule="evenodd" clip-rule="evenodd" d="M12.5431 1.75926V1.64187H9.44102V4.12012H12.1417V4.72012H9.44102V7.19837H12.4336V7.82445H8.8206V1.01579H12.4336V1.75926H12.5431V1.64187V1.77231H12.6526V0.781006H8.60162V8.05923H12.6526V6.96358H9.66V4.9549H12.3607V3.88534H9.66V1.87665H12.6526V1.75926H12.531H12.5431ZM16.0954 7.94184H15.256V1.75926H13.4312V0.898397H17.9323V1.75926H16.1075V7.94184" fill="white"/>
<path fill-rule="evenodd" clip-rule="evenodd" d="M16.0955 7.94184V7.82445H15.3656V1.64187H13.5408V1.01579H17.823V1.64187H15.9982V7.94184H16.0955V7.82445V7.95488H16.2172V1.87665H18.0419V0.781006H13.3097V1.87665H15.1466V8.05923H16.205V7.94184H16.0955V7.94184ZM21.2049 7.94184H22.0564V0.898397H21.2049V7.94184Z" fill="white"/>
<path fill-rule="evenodd" clip-rule="evenodd" d="M21.2047 7.94184H21.3142V1.02883H21.9346V7.82445H21.2047V7.95488H21.3142H21.1925V8.05923H22.1657V0.781006H21.0952V8.05923H21.2047V7.94184ZM25.791 7.94184H24.9394V1.75926H23.1146V0.898397H27.6157V1.75926H25.791V7.94184Z" fill="white"/>
<path fill-rule="evenodd" clip-rule="evenodd" d="M25.7908 7.94189V7.8245H25.0609V1.64192H23.2239V1.01583H27.5061V1.64192H25.6813V7.94189H25.7908V7.8245V7.95493H25.9003V1.8767H27.725V0.781052H23.0049V1.8767H24.8297V8.05928H25.9003V7.94189H25.7786H25.7908ZM31.9707 6.4419C32.4573 6.96363 33.0655 7.2245 33.7589 7.2245C34.4645 7.2245 35.0606 6.96363 35.5472 6.4419C36.0338 5.92016 36.2771 5.2419 36.2771 4.42017C36.2771 3.59843 36.0338 2.93322 35.5472 2.39844C35.0606 1.8767 34.4645 1.61583 33.7589 1.61583C33.0534 1.61583 32.4573 1.8767 31.9707 2.39844C31.4841 2.92017 31.2408 3.59843 31.2408 4.42017C31.2408 5.2419 31.4841 5.92016 31.9707 6.4419ZM36.1677 7.02885C35.5229 7.74624 34.72 8.09841 33.7589 8.09841C32.7979 8.09841 31.995 7.74624 31.3502 7.02885C31.0332 6.68618 30.7837 6.27866 30.6165 5.83051C30.4493 5.38236 30.3679 4.90274 30.377 4.42017C30.3673 3.93866 30.4477 3.45995 30.6136 3.01237C30.7794 2.5648 31.0274 2.15746 31.3427 1.81448C31.6581 1.4715 32.0344 1.19985 32.4495 1.01562C32.8645 0.831387 33.3098 0.738318 33.7589 0.741922C34.2081 0.738318 34.6534 0.831387 35.0684 1.01562C35.4835 1.19985 35.8598 1.4715 36.1751 1.81448C36.4905 2.15746 36.7384 2.5648 36.9043 3.01237C37.0702 3.45995 37.1506 3.93866 37.1409 4.42017C37.1409 5.4506 36.8124 6.32451 36.1677 7.02885Z" fill="white"/>
<path fill-rule="evenodd" clip-rule="evenodd" d="M31.9708 6.44185L31.8979 6.52011C32.4088 7.06794 33.0292 7.35489 33.7591 7.35489C34.489 7.35489 35.1216 7.06794 35.6204 6.52011C36.1313 5.97229 36.3868 5.26794 36.3868 4.43317C36.3868 3.5723 36.1313 2.86796 35.6204 2.32013C35.3806 2.05093 35.0914 1.8378 34.7711 1.69415C34.4508 1.55049 34.1063 1.4794 33.7591 1.48535C33.0292 1.48535 32.4088 1.77231 31.8979 2.32013C31.6445 2.59653 31.4459 2.9251 31.3142 3.28603C31.1825 3.64695 31.1203 4.03274 31.1314 4.42012C31.1314 5.26794 31.3869 5.98533 31.8979 6.52011L32.056 6.36359C31.8212 6.10818 31.6376 5.80407 31.5162 5.4699C31.3949 5.13572 31.3385 4.7785 31.3504 4.42012C31.3504 3.63752 31.5937 2.98535 32.056 2.47665C32.2763 2.23202 32.5412 2.03861 32.8342 1.90846C33.1272 1.77831 33.442 1.71421 33.7591 1.72013C34.4404 1.72013 35 1.981 35.4622 2.47665C35.9367 2.99839 36.1678 3.62447 36.1678 4.43317C36.1678 5.21577 35.9245 5.8549 35.4622 6.36359C35 6.87229 34.4404 7.12011 33.7591 7.12011C33.442 7.12604 33.1272 7.06193 32.8342 6.93178C32.5412 6.80163 32.2763 6.60822 32.056 6.36359L31.9708 6.44185ZM36.1678 7.02881L36.0948 6.95055C35.4622 7.64185 34.6958 7.98098 33.7591 7.99402C33.3253 7.99588 32.8956 7.90456 32.4953 7.72545C32.095 7.54633 31.7321 7.28306 31.4283 6.95116C31.1244 6.61925 30.8856 6.22545 30.7259 5.79298C30.5663 5.36052 30.4891 4.89815 30.4989 4.43317C30.4875 3.9671 30.5634 3.50332 30.7223 3.06933C30.8812 2.63534 31.1197 2.23998 31.4238 1.90668C31.7279 1.57338 32.0912 1.30893 32.4924 1.12901C32.8935 0.949088 33.3243 0.857363 33.7591 0.859269C34.6958 0.859269 35.4622 1.1984 36.0827 1.90274C36.7153 2.59404 37.0316 3.42882 37.0316 4.42012C37.0316 5.42447 36.7153 6.25925 36.0948 6.95055L36.253 7.12011C36.9099 6.38968 37.2505 5.47664 37.2505 4.42012C37.2603 3.9232 37.177 3.42922 37.0056 2.96741C36.8343 2.50559 36.5782 2.08532 36.2527 1.73144C35.9272 1.37756 35.5388 1.09726 35.1105 0.907131C34.6822 0.716999 34.2227 0.620889 33.7591 0.624487C33.2966 0.622637 32.8384 0.720037 32.4115 0.91095C31.9846 1.10186 31.5977 1.38243 31.2734 1.73613C30.9492 2.08983 30.6943 2.50951 30.5237 2.97046C30.353 3.43141 30.2701 3.9243 30.2799 4.42012C30.2799 5.47664 30.6083 6.37664 31.2774 7.12011C31.9343 7.85054 32.7737 8.21576 33.7591 8.21576C34.7445 8.21576 35.5839 7.85054 36.253 7.12011L36.1678 7.02881ZM38.3332 7.94185V0.898399H39.3551L42.5424 6.37664H42.5789L42.5424 5.02012V0.898399H43.3939V7.94185H42.5059L39.1605 2.20274H39.124L39.1605 3.55926V7.94185H38.3211" fill="white"/>
<path fill-rule="evenodd" clip-rule="evenodd" d="M38.333 7.94184H38.4303V1.02883H39.2819L42.4813 6.50707H42.6881L42.6516 5.02012V1.01579H43.2721V7.82445H42.5665L39.2211 2.08535H39.0143L39.0508 3.55925V7.82445H38.3208V7.95488H38.4425H38.3208V8.05923H39.2697V3.55925L39.2332 2.18969H39.1238V2.32013H39.1602V2.18969L39.0751 2.25491L42.4448 8.05923H43.491V0.781006H42.4327V5.02012L42.4692 6.37663H42.5786V6.25924H42.5422V6.38967L42.6395 6.31141L39.4157 0.781006H38.2114V8.05923H38.333V7.94184Z" fill="white"/>
</svg>
