<svg width="137" height="32" viewBox="0 0 137 32" fill="none" xmlns="http://www.w3.org/2000/svg">
<path fill-rule="evenodd" clip-rule="evenodd" d="M0.928022 27.0912L1.074 27.1303C1.02463 27.1205 0.975874 27.1075 0.928022 27.0912ZM21.7304 12.2217C22.2779 12.5478 22.6185 12.9782 22.728 13.4217L22.7523 13.5912C22.7036 14.0869 22.3508 14.5825 21.7183 14.9608L2.49732 26.6607C2.10804 26.9086 1.73092 27.0129 1.40246 27.0129C1.06184 27.0129 0.769875 26.8955 0.526572 26.6738L0.453582 26.5955C0.13473 26.1832 -0.0261549 25.6563 0.00347068 25.1216V2.06086C0.00347068 1.35652 0.198113 0.821736 0.526572 0.49565C0.769875 0.273912 1.06184 0.156521 1.40246 0.156521C1.73092 0.156521 2.10804 0.273912 2.49732 0.508694L21.7183 12.2217H21.7304ZM113.066 26.5564H115.329V10.2521H113.066V26.5564ZM133.504 16.1217L130.9 23.1912H130.827L128.127 16.1217H125.682L129.733 26.0086L127.421 31.4999H129.793L136.034 16.1217H133.504ZM120.633 24.7042C119.891 24.7042 118.857 24.3129 118.857 23.3216C118.857 22.0564 120.146 21.5738 121.253 21.5738C122.263 21.5738 122.725 21.8086 123.334 22.1216C123.251 22.8297 122.932 23.4816 122.436 23.9565C121.939 24.4314 121.298 24.6971 120.633 24.7042ZM120.913 15.7695C119.258 15.7695 117.567 16.5521 116.862 18.2608L118.869 19.1738C119.307 18.2608 120.11 17.9738 120.937 17.9738C122.117 17.9738 123.309 18.7173 123.334 20.0608V20.2303C122.603 19.8156 121.788 19.6005 120.962 19.6043C118.796 19.6043 116.582 20.8825 116.582 23.2695C116.582 25.4608 118.37 26.8694 120.353 26.8694C121.886 26.8694 122.725 26.126 123.261 25.2651H123.334V26.5303H125.523V20.2695C125.523 17.3869 123.504 15.7695 120.901 15.7695H120.913ZM106.874 18.1173H103.65V12.5086H106.874C108.577 12.5086 109.551 14.0217 109.551 15.313C109.551 16.5782 108.577 18.1043 106.874 18.1043V18.1173ZM106.826 10.2521H101.376V26.5564H103.65V20.3738H106.813C109.332 20.3738 111.801 18.4173 111.801 15.313C111.801 12.2086 109.332 10.2521 106.813 10.2521H106.826ZM77.1548 24.7042C75.5977 24.7042 74.2838 23.2955 74.2838 21.3651C74.2838 19.4086 75.5977 17.9738 77.1548 17.9738C78.712 17.9738 79.9285 19.4086 79.9285 21.3651C79.9285 23.2955 78.712 24.7042 77.1548 24.7042ZM79.7703 17.0347H79.6852C79.3393 16.6323 78.9173 16.3136 78.4474 16.0999C77.9775 15.8862 77.4705 15.7825 76.9602 15.7956C75.621 15.8499 74.3543 16.4622 73.4297 17.5023C72.505 18.5424 71.9953 19.9283 72.009 21.3651C71.9987 22.7972 72.5106 24.1768 73.4356 25.21C74.3605 26.2431 75.6253 26.8479 76.9602 26.8955C77.4729 26.9097 77.9823 26.8038 78.4529 26.5853C78.9235 26.3668 79.344 26.0409 79.6852 25.6303H79.7703V26.426C79.7703 28.552 78.712 29.6868 77.0088 29.6868C76.4395 29.6752 75.8864 29.4815 75.4204 29.1305C74.9544 28.7796 74.5968 28.2875 74.3933 27.7173L72.4226 28.5912C72.7939 29.5671 73.4291 30.4016 74.2464 30.9874C75.0637 31.5731 76.0258 31.8833 77.0088 31.8781C79.673 31.8781 81.9236 30.1825 81.9236 26.0999V16.1347H79.7703V17.0477V17.0347ZM83.4929 26.5564H85.7677V10.2521H83.4929V26.5564ZM89.1132 21.1695C89.0885 20.766 89.1392 20.3614 89.2622 19.9792C89.3852 19.597 89.5781 19.245 89.8296 18.9437C90.0811 18.6425 90.3862 18.3981 90.7269 18.2248C91.0676 18.0516 91.4371 17.9529 91.8138 17.9347C92.7262 17.9347 93.4926 18.4173 93.7359 19.1086L89.1132 21.1825V21.1695ZM96.1689 19.3303C95.7432 18.0912 94.4293 15.8086 91.7408 15.8086C89.0767 15.8086 86.8626 18.0391 86.8626 21.339C86.8626 24.4564 89.0523 26.8955 91.9963 26.8955C94.3685 26.8955 95.7432 25.3303 96.3149 24.4303L94.551 23.1782C94.2851 23.6482 93.9099 24.0361 93.462 24.3036C93.0141 24.5712 92.509 24.7092 91.9963 24.7042C90.8406 24.7042 90.0134 24.1434 89.4903 23.0216L96.4122 19.9564L96.1689 19.3303ZM41.0608 17.5043V19.8521H46.304C46.2283 20.9547 45.8084 21.9977 45.1118 22.8129C44.5847 23.3888 43.9506 23.8396 43.2507 24.1362C42.5508 24.4328 41.8006 24.5685 41.0487 24.5347C40.2863 24.533 39.5318 24.3693 38.8288 24.0529C38.1258 23.7366 37.4883 23.2739 36.9532 22.6916C36.418 22.1094 35.9959 21.4191 35.7112 20.6608C35.4265 19.9025 35.2849 19.0912 35.2946 18.2738C35.2802 17.0601 35.5994 15.8688 36.2123 14.8483C36.8252 13.8278 37.7047 13.0233 38.7412 12.5351C39.7776 12.0469 40.9252 11.8967 42.0407 12.103C43.1563 12.3094 44.1905 12.8633 45.0145 13.6956L46.5595 12.0391C45.8344 11.2702 44.9735 10.6642 44.0273 10.2565C43.081 9.8489 42.0683 9.64785 41.0487 9.66517C38.9079 9.66492 36.853 10.5677 35.3279 12.1785C33.8028 13.7893 32.93 15.9788 32.898 18.2738C32.93 20.5689 33.8028 22.7584 35.3279 24.3692C36.853 25.9799 38.9079 26.8827 41.0487 26.8825C43.4452 26.8825 45.2456 26.0477 46.6568 24.4695C47.9358 22.971 48.617 20.9953 48.5546 18.9651C48.5546 18.4173 48.5181 17.9217 48.4329 17.5043H41.0487H41.0608ZM54.5276 24.7042C52.9583 24.7042 51.608 23.3216 51.608 21.339C51.608 19.3434 52.9583 17.9869 54.5276 17.9869C56.1091 17.9869 57.4473 19.3434 57.4473 21.339C57.4473 23.3216 56.1091 24.7042 54.5276 24.7042ZM54.5276 15.7956C53.8444 15.7833 53.1658 15.9181 52.532 16.192C51.8982 16.466 51.3221 16.8734 50.8377 17.3903C50.3534 17.9071 49.9707 18.5229 49.7123 19.2012C49.4538 19.8794 49.3249 20.6064 49.3331 21.339C49.3233 22.0728 49.451 22.8011 49.7087 23.4809C49.9664 24.1607 50.3488 24.778 50.8333 25.2963C51.3178 25.8146 51.8945 26.2232 52.5291 26.4979C53.1637 26.7726 53.8434 26.9078 54.5276 26.8955C55.2119 26.9078 55.8916 26.7726 56.5262 26.4979C57.1608 26.2232 57.7375 25.8146 58.222 25.2963C58.7065 24.778 59.0889 24.1607 59.3466 23.4809C59.6043 22.8011 59.732 22.0728 59.7222 21.339C59.7304 20.6064 59.6015 19.8794 59.343 19.2012C59.0846 18.5229 58.7019 17.9071 58.2175 17.3903C57.7332 16.8734 57.1571 16.466 56.5233 16.192C55.8895 15.9181 55.2109 15.7833 54.5276 15.7956ZM65.8656 24.7042C64.2841 24.7042 62.9459 23.3216 62.9459 21.339C62.9459 19.3434 64.2841 17.9869 65.8656 17.9869C67.4227 17.9869 68.7852 19.3434 68.7852 21.339C68.7852 23.3216 67.4227 24.7042 65.8656 24.7042ZM65.8656 15.7956C65.1823 15.7833 64.5037 15.9181 63.8699 16.192C63.2361 16.466 62.66 16.8734 62.1757 17.3903C61.6913 17.9071 61.3086 18.5229 61.0502 19.2012C60.7917 19.8794 60.6628 20.6064 60.6711 21.339C60.6612 22.0728 60.7889 22.8011 61.0466 23.4809C61.3043 24.1607 61.6867 24.778 62.1712 25.2963C62.6558 25.8146 63.2324 26.2232 63.867 26.4979C64.5017 26.7726 65.1813 26.9078 65.8656 26.8955C66.5499 26.9078 67.2295 26.7726 67.8641 26.4979C68.4987 26.2232 69.0754 25.8146 69.5599 25.2963C70.0444 24.778 70.4268 24.1607 70.6845 23.4809C70.9422 22.8011 71.07 22.0728 71.0601 21.339C71.0683 20.6064 70.9394 19.8794 70.6809 19.2012C70.4225 18.5229 70.0398 17.9071 69.5555 17.3903C69.0711 16.8734 68.495 16.466 67.8612 16.192C67.2274 15.9181 66.5488 15.7833 65.8656 15.7956Z" fill="white"/>
</svg>
