<svg width="137" height="36" viewBox="0 0 137 36" fill="none" xmlns="http://www.w3.org/2000/svg">
<path fill-rule="evenodd" clip-rule="evenodd" d="M40.4947 4.70714C40.4947 5.6854 40.2271 6.46801 39.6797 7.05496C39.0714 7.74626 38.2564 8.09843 37.271 8.09843C36.3221 8.09843 35.507 7.74626 34.8379 7.04192C34.5164 6.70216 34.2631 6.29545 34.0937 5.84682C33.9242 5.39819 33.8422 4.91713 33.8526 4.43323C33.8526 3.38976 34.181 2.5028 34.8501 1.79846C35.507 1.09412 36.3099 0.741943 37.271 0.741943C37.7332 0.741943 38.1834 0.84629 38.6091 1.04194C39.0471 1.23759 39.3877 1.49846 39.6432 1.82455L39.0592 2.43759C38.8398 2.16204 38.5647 1.94368 38.2549 1.79905C37.9451 1.65441 37.6086 1.5873 37.271 1.60281C36.5776 1.60281 35.9815 1.86368 35.4705 2.38541C34.9718 2.90715 34.7163 3.58541 34.7163 4.42019C34.7163 5.25497 34.9596 5.93323 35.4705 6.45496C35.9815 6.9767 36.5654 7.23757 37.271 7.23757C38.0009 7.23757 38.6091 6.9767 39.0957 6.45496C39.412 6.10279 39.6067 5.63323 39.6553 5.02019H37.271V4.17236H40.4461C40.4826 4.35497 40.4947 4.53758 40.4947 4.6941" fill="white"/>
<path fill-rule="evenodd" clip-rule="evenodd" d="M40.4945 4.7071H40.385C40.385 5.67232 40.1174 6.40275 39.6065 6.97666C38.9982 7.64187 38.2318 7.981 37.2708 7.981C36.3462 7.981 35.5676 7.64187 34.9229 6.96361C34.6074 6.63389 34.3592 6.23763 34.1938 5.79986C34.0284 5.36208 33.9494 4.89229 33.9618 4.42015C33.9618 3.40276 34.2781 2.56798 34.935 1.87668C35.2394 1.54571 35.6035 1.28478 36.0051 1.10985C36.4067 0.93492 36.8374 0.849663 37.2708 0.859294C37.7209 0.859294 38.1588 0.950597 38.5724 1.14625C38.986 1.3419 39.3023 1.58972 39.5578 1.90277L39.643 1.82451L39.5578 1.74625L38.986 2.35929L39.059 2.43755L39.1442 2.37233C38.6941 1.78538 38.0493 1.48538 37.2708 1.48538C36.5408 1.48538 35.9204 1.75929 35.3973 2.30711C34.8742 2.84189 34.6066 3.55928 34.6066 4.42015C34.6066 5.28101 34.8742 5.98536 35.3973 6.53318C35.9204 7.081 36.553 7.35492 37.2708 7.35492C38.025 7.35492 38.6697 7.081 39.1807 6.53318C39.5213 6.16796 39.7159 5.65927 39.7646 5.03319V4.90275H37.3924V4.28971H40.458V4.17232L40.3485 4.19841C40.385 4.36797 40.3972 4.53754 40.3972 4.7071H40.6162C40.6162 4.52449 40.604 4.34189 40.5675 4.15928L40.5553 4.05493H37.1491V5.13753H39.643V5.02014H39.5213C39.4848 5.6071 39.3023 6.05057 39.0104 6.36362C38.5359 6.87231 37.9642 7.12013 37.2586 7.12013C36.5895 7.12013 36.0177 6.85927 35.5311 6.36362C35.0445 5.86797 34.8012 5.22884 34.8012 4.42015C34.8012 3.61145 35.0445 2.98537 35.5311 2.46363C36.0177 1.96798 36.5895 1.72016 37.2586 1.72016C37.9885 1.72016 38.5481 1.98103 38.9617 2.51581L39.0469 2.62015L39.7038 1.90277L39.7768 1.83755L39.7159 1.74625C39.4245 1.38567 39.0577 1.1041 38.6454 0.92451C38.2106 0.72651 37.7431 0.624481 37.2708 0.624512C36.2975 0.624512 35.446 0.989728 34.7769 1.72016C34.4422 2.06828 34.1777 2.48639 33.9998 2.94858C33.822 3.41077 33.7345 3.90719 33.7429 4.4071C33.7429 5.47666 34.0835 6.3897 34.7769 7.12013C35.1022 7.47269 35.4911 7.7505 35.9199 7.93663C36.3487 8.12276 36.8083 8.2133 37.2708 8.20274C38.2805 8.20274 39.1199 7.83752 39.7524 7.12013L39.6795 7.04187L39.7524 7.13318C40.3242 6.52014 40.604 5.6984 40.604 4.69406H40.4945V4.7071ZM45.5431 1.75929H42.5504V4.00276H45.2511V4.83754H42.5504V7.081H45.5431V7.94187H41.711V0.898424H45.5431V1.75929" fill="white"/>
<path fill-rule="evenodd" clip-rule="evenodd" d="M45.5431 1.75926V1.64187H42.441V4.12012H45.1417V4.72012H42.441V7.19837H45.4336V7.82445H41.8206V1.01579H45.4336V1.75926H45.5431V1.64187V1.77231H45.6526V0.781006H41.6016V8.05923H45.6526V6.96358H42.66V4.9549H45.3607V3.88534H42.66V1.87665H45.6526V1.75926H45.531H45.5431ZM49.0954 7.94184H48.256V1.75926H46.4312V0.898397H50.9323V1.75926H49.1075V7.94184" fill="white"/>
<path fill-rule="evenodd" clip-rule="evenodd" d="M49.0955 7.94184V7.82445H48.3656V1.64187H46.5408V1.01579H50.823V1.64187H48.9982V7.94184H49.0955V7.82445V7.95488H49.2172V1.87665H51.0419V0.781006H46.3097V1.87665H48.1466V8.05923H49.205V7.94184H49.0955V7.94184ZM54.2049 7.94184H55.0564V0.898397H54.2049V7.94184Z" fill="white"/>
<path fill-rule="evenodd" clip-rule="evenodd" d="M54.2047 7.94184H54.3142V1.02883H54.9346V7.82445H54.2047V7.95488H54.3142H54.1925V8.05923H55.1657V0.781006H54.0952V8.05923H54.2047V7.94184ZM58.791 7.94184H57.9394V1.75926H56.1146V0.898397H60.6157V1.75926H58.791V7.94184Z" fill="white"/>
<path fill-rule="evenodd" clip-rule="evenodd" d="M58.7908 7.94201V7.82462H58.0609V1.64204H56.2239V1.01596H60.5061V1.64204H58.6813V7.94201H58.7908V7.82462V7.95506H58.9003V1.87682H60.725V0.781174H56.0049V1.87682H57.8297V8.0594H58.9003V7.94201H58.7786H58.7908ZM64.9707 6.44202C65.4573 6.96376 66.0655 7.22463 66.7589 7.22463C67.4645 7.22463 68.0606 6.96376 68.5472 6.44202C69.0338 5.92028 69.2771 5.24202 69.2771 4.42029C69.2771 3.59855 69.0338 2.93334 68.5472 2.39856C68.0606 1.87682 67.4645 1.61595 66.7589 1.61595C66.0534 1.61595 65.4573 1.87682 64.9707 2.39856C64.4841 2.9203 64.2408 3.59855 64.2408 4.42029C64.2408 5.24202 64.4841 5.92028 64.9707 6.44202ZM69.1677 7.02897C68.5229 7.74636 67.72 8.09853 66.7589 8.09853C65.7979 8.09853 64.995 7.74636 64.3502 7.02897C64.0332 6.68631 63.7837 6.27878 63.6165 5.83063C63.4493 5.38248 63.3679 4.90286 63.377 4.42029C63.3673 3.93878 63.4477 3.46007 63.6136 3.01249C63.7794 2.56492 64.0274 2.15758 64.3427 1.8146C64.6581 1.47162 65.0344 1.19997 65.4495 1.01574C65.8645 0.831509 66.3098 0.73844 66.7589 0.742044C67.2081 0.73844 67.6534 0.831509 68.0684 1.01574C68.4835 1.19997 68.8598 1.47162 69.1751 1.8146C69.4905 2.15758 69.7384 2.56492 69.9043 3.01249C70.0702 3.46007 70.1506 3.93878 70.1409 4.42029C70.1409 5.45072 69.8124 6.32463 69.1677 7.02897Z" fill="white"/>
<path fill-rule="evenodd" clip-rule="evenodd" d="M1.82145 30.3242L1.96744 30.3633C1.91806 30.3536 1.86931 30.3405 1.82145 30.3242V30.3242ZM22.6239 15.4547C23.1713 15.7808 23.5119 16.2112 23.6214 16.6547L23.6457 16.8243C23.5971 17.3199 23.2443 17.8156 22.6117 18.1938L3.39076 29.8938C3.00147 30.1416 2.62435 30.246 2.29589 30.246C1.95527 30.246 1.66331 30.1286 1.42 29.9068L1.34701 29.8286C1.02816 29.4162 0.867278 28.8894 0.896903 28.3547V5.29389C0.896903 4.58955 1.09155 4.05477 1.42 3.72868C1.66331 3.50694 1.95527 3.38955 2.29589 3.38955C2.62435 3.38955 3.00147 3.50694 3.39076 3.74173L22.6117 15.4547H22.6239ZM2.28373 3.23303H2.45404H2.28373ZM113.96 29.7894H116.222V13.4852H113.96V29.7894ZM134.397 19.3547L131.794 26.4242H131.721L129.02 19.3547H126.575L130.626 29.2416L128.315 34.7329H130.687L136.928 19.3547H134.397ZM121.526 27.9373C120.784 27.9373 119.75 27.546 119.75 26.5547C119.75 25.2895 121.04 24.8068 122.147 24.8068C123.157 24.8068 123.619 25.0416 124.227 25.3547C124.145 26.0627 123.826 26.7146 123.329 27.1895C122.832 27.6645 122.192 27.9301 121.526 27.9373ZM121.806 19.0025C120.152 19.0025 118.461 19.7851 117.755 21.4938L119.763 22.4069C120.2 21.4938 121.003 21.2069 121.831 21.2069C123.011 21.2069 124.203 21.9503 124.227 23.2938V23.4634C123.496 23.0486 122.682 22.8335 121.855 22.8373C119.69 22.8373 117.475 24.1155 117.475 26.5025C117.475 28.6938 119.264 30.1025 121.247 30.1025C122.779 30.1025 123.619 29.359 124.154 28.4981H124.227V29.7633H126.417V23.5025C126.417 20.6199 124.397 19.0025 121.794 19.0025H121.806ZM107.768 21.3503H104.544V15.7417H107.768C109.471 15.7417 110.444 17.2547 110.444 18.546C110.444 19.8112 109.471 21.3373 107.768 21.3373V21.3503ZM107.719 13.4852H102.269V29.7894H104.544V23.6069H107.707C110.225 23.6069 112.695 21.6503 112.695 18.546C112.695 15.4417 110.225 13.4852 107.707 13.4852H107.719ZM78.0482 27.9373C76.4911 27.9373 75.1773 26.5286 75.1773 24.5982C75.1773 22.6416 76.4911 21.2069 78.0482 21.2069C79.6054 21.2069 80.8219 22.6416 80.8219 24.5982C80.8219 26.5286 79.6054 27.9373 78.0482 27.9373ZM80.6638 20.2677H80.5786C80.2327 19.8653 79.8107 19.5466 79.3408 19.3329C78.8709 19.1192 78.3639 19.0155 77.8536 19.0286C76.5144 19.0829 75.2478 19.6952 74.3231 20.7353C73.3985 21.7754 72.8888 23.1613 72.9024 24.5982C72.8921 26.0302 73.4041 27.4099 74.329 28.443C75.2539 29.4761 76.5187 30.081 77.8536 30.1286C78.3663 30.1427 78.8757 30.0368 79.3463 29.8183C79.8169 29.5998 80.2375 29.2739 80.5786 28.8634H80.6638V29.659C80.6638 31.7851 79.6054 32.9199 77.9023 32.9199C77.3329 32.9082 76.7798 32.7145 76.3138 32.3636C75.8478 32.0127 75.4902 31.5206 75.2868 30.9503L73.316 31.8242C73.6874 32.8001 74.3226 33.6347 75.1399 34.2204C75.9572 34.8062 76.9192 35.1164 77.9023 35.1111C80.5664 35.1111 82.817 33.4155 82.817 29.3329V19.3677H80.6638V20.2808V20.2677ZM84.3863 29.7894H86.6612V13.4852H84.3863V29.7894ZM90.0066 24.4025C89.9819 23.9991 90.0326 23.5944 90.1556 23.2122C90.2787 22.83 90.4716 22.478 90.7231 22.1768C90.9746 21.8755 91.2796 21.6311 91.6203 21.4578C91.961 21.2846 92.3306 21.186 92.7073 21.1677C93.6196 21.1677 94.386 21.6503 94.6293 22.3416L90.0066 24.4155V24.4025ZM97.0624 22.5634C96.6366 21.3243 95.3228 19.0417 92.6343 19.0417C89.9701 19.0417 87.756 21.2721 87.756 24.5721C87.756 27.6894 89.9458 30.1286 92.8897 30.1286C95.2619 30.1286 96.6366 28.5634 97.2084 27.6634L95.4444 26.4112C95.1786 26.8813 94.8033 27.2691 94.3554 27.5367C93.9075 27.8042 93.4024 27.9423 92.8897 27.9373C91.734 27.9373 90.9068 27.3764 90.3837 26.2547L97.3057 23.1895L97.0624 22.5634V22.5634ZM41.9543 20.7373V23.0851H47.1974C47.1218 24.1877 46.7018 25.2308 46.0053 26.046C45.4781 26.6219 44.844 27.0727 44.1441 27.3693C43.4442 27.6658 42.694 27.8016 41.9421 27.7677C41.1797 27.766 40.4252 27.6023 39.7222 27.2859C39.0192 26.9696 38.3817 26.5069 37.8466 25.9247C37.3115 25.3424 36.8893 24.6522 36.6047 23.8939C36.32 23.1355 36.1783 22.3242 36.188 21.5069C36.1737 20.2932 36.4928 19.1018 37.1058 18.0813C37.7187 17.0608 38.5982 16.2563 39.6346 15.7682C40.6711 15.28 41.8186 15.1297 42.9342 15.3361C44.0497 15.5424 45.084 16.0963 45.9079 16.9286L47.4529 15.2721C46.7279 14.5032 45.867 13.8972 44.9207 13.4896C43.9744 13.0819 42.9618 12.8809 41.9421 12.8982C39.8013 12.8979 37.7464 13.8007 36.2213 15.4115C34.6962 17.0223 33.8234 19.2118 33.7915 21.5069C33.8234 23.8019 34.6962 25.9914 36.2213 27.6022C37.7464 29.213 39.8013 30.1158 41.9421 30.1155C44.3386 30.1155 46.1391 29.2807 47.5502 27.7025C48.8292 26.204 49.5104 24.2283 49.448 22.1982C49.448 21.6503 49.4115 21.1547 49.3263 20.7373H41.9421H41.9543ZM55.4211 27.9373C53.8518 27.9373 52.5014 26.5547 52.5014 24.5721C52.5014 22.5764 53.8518 21.2199 55.4211 21.2199C57.0026 21.2199 58.3407 22.5764 58.3407 24.5721C58.3407 26.5547 57.0026 27.9373 55.4211 27.9373V27.9373ZM55.4211 19.0286C54.7378 19.0163 54.0592 19.1512 53.4254 19.4251C52.7916 19.699 52.2155 20.1064 51.7312 20.6233C51.2469 21.1402 50.8641 21.756 50.6057 22.4342C50.3473 23.1125 50.2183 23.8394 50.2266 24.5721C50.2167 25.3058 50.3444 26.0342 50.6021 26.7139C50.8598 27.3937 51.2423 28.0111 51.7268 28.5293C52.2113 29.0476 52.7879 29.4562 53.4226 29.7309C54.0572 30.0056 54.7368 30.1409 55.4211 30.1286C56.1054 30.1409 56.785 30.0056 57.4196 29.7309C58.0542 29.4562 58.6309 29.0476 59.1154 28.5293C59.5999 28.0111 59.9823 27.3937 60.2401 26.7139C60.4978 26.0342 60.6255 25.3058 60.6156 24.5721C60.6238 23.8394 60.4949 23.1125 60.2365 22.4342C59.978 21.756 59.5953 21.1402 59.111 20.6233C58.6266 20.1064 58.0505 19.699 57.4167 19.4251C56.7829 19.1512 56.1043 19.0163 55.4211 19.0286V19.0286ZM66.759 27.9373C65.1775 27.9373 63.8394 26.5547 63.8394 24.5721C63.8394 22.5764 65.1775 21.2199 66.759 21.2199C68.3161 21.2199 69.6786 22.5764 69.6786 24.5721C69.6786 26.5547 68.3161 27.9373 66.759 27.9373ZM66.759 19.0286C66.0757 19.0163 65.3971 19.1512 64.7633 19.4251C64.1295 19.699 63.5534 20.1064 63.0691 20.6233C62.5848 21.1402 62.2021 21.756 61.9436 22.4342C61.6852 23.1125 61.5563 23.8394 61.5645 24.5721C61.5546 25.3058 61.6823 26.0342 61.94 26.7139C62.1977 27.3937 62.5802 28.0111 63.0647 28.5293C63.5492 29.0476 64.1259 29.4562 64.7605 29.7309C65.3951 30.0056 66.0747 30.1409 66.759 30.1286C67.4433 30.1409 68.1229 30.0056 68.7575 29.7309C69.3921 29.4562 69.9688 29.0476 70.4533 28.5293C70.9378 28.0111 71.3203 27.3937 71.578 26.7139C71.8357 26.0342 71.9634 25.3058 71.9535 24.5721C71.9617 23.8394 71.8328 23.1125 71.5744 22.4342C71.3159 21.756 70.9332 21.1402 70.4489 20.6233C69.9646 20.1064 69.3885 19.699 68.7547 19.4251C68.1209 19.1512 67.4422 19.0163 66.759 19.0286V19.0286Z" fill="white"/>
<path fill-rule="evenodd" clip-rule="evenodd" d="M64.9708 6.44185L64.8979 6.52011C65.4088 7.06794 66.0292 7.35489 66.7591 7.35489C67.489 7.35489 68.1216 7.06794 68.6204 6.52011C69.1313 5.97229 69.3868 5.26794 69.3868 4.43317C69.3868 3.5723 69.1313 2.86796 68.6204 2.32013C68.3806 2.05093 68.0914 1.8378 67.7711 1.69415C67.4508 1.55049 67.1063 1.4794 66.7591 1.48535C66.0292 1.48535 65.4088 1.77231 64.8979 2.32013C64.6445 2.59653 64.4459 2.9251 64.3142 3.28603C64.1825 3.64695 64.1203 4.03274 64.1314 4.42012C64.1314 5.26794 64.3869 5.98533 64.8979 6.52011L65.056 6.36359C64.8212 6.10818 64.6376 5.80407 64.5162 5.4699C64.3949 5.13572 64.3385 4.7785 64.3504 4.42012C64.3504 3.63752 64.5937 2.98535 65.056 2.47665C65.2763 2.23202 65.5412 2.03861 65.8342 1.90846C66.1272 1.77831 66.442 1.71421 66.7591 1.72013C67.4404 1.72013 68 1.981 68.4622 2.47665C68.9367 2.99839 69.1678 3.62447 69.1678 4.43317C69.1678 5.21577 68.9245 5.8549 68.4622 6.36359C68 6.87229 67.4404 7.12011 66.7591 7.12011C66.442 7.12604 66.1272 7.06193 65.8342 6.93178C65.5412 6.80163 65.2763 6.60822 65.056 6.36359L64.9708 6.44185ZM69.1678 7.02881L69.0948 6.95055C68.4622 7.64185 67.6958 7.98098 66.7591 7.99402C66.3253 7.99588 65.8956 7.90456 65.4953 7.72545C65.095 7.54633 64.7321 7.28306 64.4283 6.95116C64.1244 6.61925 63.8856 6.22545 63.7259 5.79298C63.5663 5.36052 63.4891 4.89815 63.4989 4.43317C63.4875 3.9671 63.5634 3.50332 63.7223 3.06933C63.8812 2.63534 64.1197 2.23998 64.4238 1.90668C64.7279 1.57338 65.0912 1.30893 65.4924 1.12901C65.8935 0.949088 66.3243 0.857363 66.7591 0.859269C67.6958 0.859269 68.4622 1.1984 69.0827 1.90274C69.7153 2.59404 70.0316 3.42882 70.0316 4.42012C70.0316 5.42447 69.7153 6.25925 69.0948 6.95055L69.253 7.12011C69.9099 6.38968 70.2505 5.47664 70.2505 4.42012C70.2603 3.9232 70.177 3.42922 70.0056 2.96741C69.8343 2.50559 69.5782 2.08532 69.2527 1.73144C68.9272 1.37756 68.5388 1.09726 68.1105 0.907131C67.6822 0.716999 67.2227 0.620889 66.7591 0.624487C66.2966 0.622637 65.8384 0.720037 65.4115 0.91095C64.9846 1.10186 64.5977 1.38243 64.2734 1.73613C63.9492 2.08983 63.6943 2.50951 63.5237 2.97046C63.353 3.43141 63.2701 3.9243 63.2799 4.42012C63.2799 5.47664 63.6083 6.37664 64.2774 7.12011C64.9343 7.85054 65.7737 8.21576 66.7591 8.21576C67.7445 8.21576 68.5839 7.85054 69.253 7.12011L69.1678 7.02881ZM71.3332 7.94185V0.898399H72.3551L75.5424 6.37664H75.5789L75.5424 5.02012V0.898399H76.3939V7.94185H75.5059L72.1605 2.20274H72.124L72.1605 3.55926V7.94185H71.3211" fill="white"/>
<path fill-rule="evenodd" clip-rule="evenodd" d="M71.333 7.94184H71.4303V1.02883H72.2819L75.4813 6.50707H75.6881L75.6516 5.02012V1.01579H76.2721V7.82445H75.5665L72.2211 2.08535H72.0143L72.0508 3.55925V7.82445H71.3208V7.95488H71.4425H71.3208V8.05923H72.2697V3.55925L72.2332 2.18969H72.1238V2.32013H72.1602V2.18969L72.0751 2.25491L75.4448 8.05923H76.491V0.781006H75.4327V5.02012L75.4692 6.37663H75.5786V6.25924H75.5422V6.38967L75.6395 6.31141L72.4157 0.781006H71.2114V8.05923H71.333V7.94184Z" fill="white"/>
</svg>
