<svg width="167" height="53" viewBox="0 0 167 53" fill="none" xmlns="http://www.w3.org/2000/svg">
<path fill-rule="evenodd" clip-rule="evenodd" d="M10.0167 0.494019H156.728C159.989 0.494019 161.169 0.859234 162.361 1.53749C163.538 2.20479 164.5 3.23651 165.122 4.49835C165.755 5.7766 166.096 7.04181 166.096 10.5244V42.6373C166.096 46.1199 165.755 47.3851 165.122 48.6634C164.5 49.9252 163.538 50.9569 162.361 51.6242C161.169 52.3025 159.989 52.6677 156.741 52.6677H10.0045C6.75644 52.6677 5.57642 52.3025 4.38424 51.6242C3.20737 50.9569 2.24511 49.9252 1.62275 48.6634C0.99016 47.3851 0.649536 46.1199 0.649536 42.6373V10.5244C0.649536 7.04181 0.99016 5.7766 1.62275 4.49835C2.24511 3.23651 3.20737 2.20479 4.38424 1.53749C5.57642 0.859234 6.75644 0.494019 10.0045 0.494019H10.0167Z" fill="black"/>
<path fill-rule="evenodd" clip-rule="evenodd" d="M19.8215 39.3242L19.9674 39.3633C19.9181 39.3536 19.8693 39.3405 19.8215 39.3242ZM40.6239 24.4547C41.1713 24.7808 41.5119 25.2112 41.6214 25.6547L41.6457 25.8243C41.5971 26.3199 41.2443 26.8156 40.6117 27.1938L21.3908 38.8938C21.0015 39.1416 20.6244 39.246 20.2959 39.246C19.9553 39.246 19.6633 39.1286 19.42 38.9068L19.347 38.8286C19.0282 38.4162 18.8673 37.8894 18.8969 37.3547V14.2939C18.8969 13.5895 19.0915 13.0548 19.42 12.7287C19.6633 12.5069 19.9553 12.3896 20.2959 12.3896C20.6244 12.3896 21.0015 12.5069 21.3908 12.7417L40.6117 24.4547H40.6239ZM20.2837 12.233H20.454H20.2837ZM131.96 38.7894H134.222V22.4852H131.96V38.7894ZM152.397 28.3547L149.794 35.4242H149.721L147.02 28.3547H144.575L148.626 38.2416L146.315 43.7329H148.687L154.928 28.3547H152.397ZM139.526 36.9373C138.784 36.9373 137.75 36.546 137.75 35.5547C137.75 34.2895 139.04 33.8068 140.147 33.8068C141.157 33.8068 141.619 34.0416 142.227 34.3547C142.145 35.0627 141.826 35.7146 141.329 36.1895C140.832 36.6645 140.192 36.9301 139.526 36.9373ZM139.806 28.0025C138.152 28.0025 136.461 28.7851 135.755 30.4938L137.763 31.4069C138.2 30.4938 139.003 30.2069 139.831 30.2069C141.011 30.2069 142.203 30.9503 142.227 32.2938V32.4634C141.496 32.0486 140.682 31.8335 139.855 31.8373C137.69 31.8373 135.475 33.1155 135.475 35.5025C135.475 37.6938 137.264 39.1025 139.247 39.1025C140.779 39.1025 141.619 38.359 142.154 37.4981H142.227V38.7633H144.417V32.5025C144.417 29.6199 142.397 28.0025 139.794 28.0025H139.806ZM125.768 30.3503H122.544V24.7417H125.768C127.471 24.7417 128.444 26.2547 128.444 27.546C128.444 28.8112 127.471 30.3373 125.768 30.3373V30.3503ZM125.719 22.4852H120.269V38.7894H122.544V32.6069H125.707C128.225 32.6069 130.695 30.6503 130.695 27.546C130.695 24.4417 128.225 22.4852 125.707 22.4852H125.719ZM96.0482 36.9373C94.4911 36.9373 93.1773 35.5286 93.1773 33.5982C93.1773 31.6416 94.4911 30.2069 96.0482 30.2069C97.6054 30.2069 98.8219 31.6416 98.8219 33.5982C98.8219 35.5286 97.6054 36.9373 96.0482 36.9373ZM98.6638 29.2677H98.5786C98.2327 28.8653 97.8107 28.5466 97.3408 28.3329C96.8709 28.1192 96.3639 28.0155 95.8536 28.0286C94.5144 28.0829 93.2478 28.6952 92.3231 29.7353C91.3985 30.7754 90.8888 32.1613 90.9024 33.5982C90.8921 35.0302 91.4041 36.4099 92.329 37.443C93.2539 38.4761 94.5187 39.081 95.8536 39.1286C96.3663 39.1427 96.8757 39.0368 97.3463 38.8183C97.8169 38.5998 98.2375 38.2739 98.5786 37.8633H98.6638V38.659C98.6638 40.7851 97.6054 41.9199 95.9023 41.9199C95.3329 41.9082 94.7798 41.7145 94.3138 41.3636C93.8478 41.0127 93.4902 40.5206 93.2868 39.9503L91.316 40.8242C91.6874 41.8001 92.3226 42.6347 93.1399 43.2204C93.9572 43.8062 94.9192 44.1164 95.9023 44.1111C98.5664 44.1111 100.817 42.4155 100.817 38.3329V28.3677H98.6638V29.2808V29.2677ZM102.386 38.7894H104.661V22.4852H102.386V38.7894ZM108.007 33.4025C107.982 32.9991 108.033 32.5944 108.156 32.2122C108.279 31.83 108.472 31.478 108.723 31.1768C108.975 30.8755 109.28 30.6311 109.62 30.4578C109.961 30.2846 110.331 30.186 110.707 30.1677C111.62 30.1677 112.386 30.6503 112.629 31.3416L108.007 33.4155V33.4025ZM115.062 31.5634C114.637 30.3243 113.323 28.0417 110.634 28.0417C107.97 28.0417 105.756 30.2721 105.756 33.5721C105.756 36.6894 107.946 39.1286 110.89 39.1286C113.262 39.1286 114.637 37.5634 115.208 36.6634L113.444 35.4112C113.179 35.8813 112.803 36.2691 112.355 36.5367C111.908 36.8042 111.402 36.9423 110.89 36.9373C109.734 36.9373 108.907 36.3764 108.384 35.2547L115.306 32.1895L115.062 31.5634ZM59.9543 29.7373V32.0851H65.1974C65.1218 33.1877 64.7018 34.2308 64.0053 35.046C63.4781 35.6219 62.844 36.0727 62.1441 36.3693C61.4442 36.6658 60.694 36.8016 59.9421 36.7677C59.1797 36.766 58.4252 36.6023 57.7222 36.2859C57.0192 35.9696 56.3817 35.5069 55.8466 34.9247C55.3115 34.3424 54.8893 33.6522 54.6046 32.8939C54.32 32.1355 54.1783 31.3242 54.188 30.5069C54.1737 29.2932 54.4929 28.1018 55.1058 27.0813C55.7187 26.0608 56.5982 25.2563 57.6346 24.7682C58.6711 24.28 59.8186 24.1297 60.9342 24.3361C62.0497 24.5424 63.084 25.0963 63.9079 25.9286L65.4529 24.2721C64.7279 23.5032 63.867 22.8972 62.9207 22.4896C61.9744 22.0819 60.9618 21.8809 59.9421 21.8982C57.8013 21.898 55.7464 22.8007 54.2213 24.4115C52.6962 26.0223 51.8234 28.2118 51.7915 30.5069C51.8234 32.8019 52.6962 34.9914 54.2213 36.6022C55.7464 38.213 57.8013 39.1158 59.9421 39.1155C62.3386 39.1155 64.1391 38.2807 65.5502 36.7025C66.8292 35.204 67.5104 33.2283 67.448 31.1982C67.448 30.6503 67.4115 30.1547 67.3263 29.7373H59.9421H59.9543ZM73.4211 36.9373C71.8518 36.9373 70.5014 35.5547 70.5014 33.5721C70.5014 31.5764 71.8518 30.2199 73.4211 30.2199C75.0026 30.2199 76.3407 31.5764 76.3407 33.5721C76.3407 35.5547 75.0026 36.9373 73.4211 36.9373ZM73.4211 28.0286C72.7378 28.0163 72.0592 28.1512 71.4254 28.4251C70.7916 28.699 70.2155 29.1064 69.7312 29.6233C69.2468 30.1402 68.8641 30.756 68.6057 31.4342C68.3473 32.1125 68.2183 32.8394 68.2266 33.5721C68.2167 34.3058 68.3444 35.0342 68.6021 35.7139C68.8598 36.3937 69.2423 37.0111 69.7268 37.5293C70.2113 38.0476 70.7879 38.4562 71.4226 38.7309C72.0572 39.0056 72.7368 39.1409 73.4211 39.1286C74.1054 39.1409 74.785 39.0056 75.4196 38.7309C76.0542 38.4562 76.6309 38.0476 77.1154 37.5293C77.5999 37.0111 77.9823 36.3937 78.2401 35.7139C78.4978 35.0342 78.6255 34.3058 78.6156 33.5721C78.6238 32.8394 78.4949 32.1125 78.2365 31.4342C77.978 30.756 77.5953 30.1402 77.111 29.6233C76.6266 29.1064 76.0505 28.699 75.4167 28.4251C74.7829 28.1512 74.1043 28.0163 73.4211 28.0286ZM84.759 36.9373C83.1775 36.9373 81.8394 35.5547 81.8394 33.5721C81.8394 31.5764 83.1775 30.2199 84.759 30.2199C86.3161 30.2199 87.6786 31.5764 87.6786 33.5721C87.6786 35.5547 86.3161 36.9373 84.759 36.9373ZM84.759 28.0286C84.0757 28.0163 83.3971 28.1512 82.7633 28.4251C82.1295 28.699 81.5534 29.1064 81.0691 29.6233C80.5848 30.1402 80.2021 30.756 79.9436 31.4342C79.6852 32.1125 79.5563 32.8394 79.5645 33.5721C79.5546 34.3058 79.6823 35.0342 79.94 35.7139C80.1977 36.3937 80.5802 37.0111 81.0647 37.5293C81.5492 38.0476 82.1259 38.4562 82.7605 38.7309C83.3951 39.0056 84.0747 39.1409 84.759 39.1286C85.4433 39.1409 86.1229 39.0056 86.7575 38.7309C87.3921 38.4562 87.9688 38.0476 88.4533 37.5293C88.9378 37.0111 89.3203 36.3937 89.578 35.7139C89.8357 35.0342 89.9634 34.3058 89.9535 33.5721C89.9617 32.8394 89.8328 32.1125 89.5744 31.4342C89.3159 30.756 88.9332 30.1402 88.4489 29.6233C87.9646 29.1064 87.3885 28.699 86.7547 28.4251C86.1209 28.1512 85.4422 28.0163 84.759 28.0286Z" fill="white"/>
<path fill-rule="evenodd" clip-rule="evenodd" d="M58.4947 13.707C58.4947 14.6853 58.2271 15.4679 57.6797 16.0548C57.0714 16.7461 56.2564 17.0983 55.271 17.0983C54.3221 17.0983 53.507 16.7461 52.8379 16.0418C52.5164 15.702 52.2631 15.2953 52.0937 14.8467C51.9242 14.3981 51.8422 13.917 51.8526 13.4331C51.8526 12.3896 52.181 11.5027 52.8501 10.7983C53.507 10.094 54.3099 9.74182 55.271 9.74182C55.7332 9.74182 56.1834 9.84617 56.6091 10.0418C57.0471 10.2375 57.3877 10.4983 57.6432 10.8244L57.0592 11.4375C56.8398 11.1619 56.5647 10.9436 56.2549 10.7989C55.9451 10.6543 55.6086 10.5872 55.271 10.6027C54.5776 10.6027 53.9815 10.8636 53.4705 11.3853C52.9718 11.907 52.7163 12.5853 52.7163 13.4201C52.7163 14.2548 52.9596 14.9331 53.4705 15.4548C53.9815 15.9766 54.5654 16.2374 55.271 16.2374C56.0009 16.2374 56.6091 15.9766 57.0957 15.4548C57.412 15.1027 57.6067 14.6331 57.6553 14.0201H55.271V13.1722H58.4461C58.4826 13.3548 58.4947 13.5375 58.4947 13.694" fill="white"/>
<path fill-rule="evenodd" clip-rule="evenodd" d="M58.4945 13.7071H58.385C58.385 14.6723 58.1174 15.4027 57.6065 15.9767C56.9982 16.6419 56.2318 16.981 55.2708 16.981C54.3462 16.981 53.5676 16.6419 52.9229 15.9636C52.6074 15.6339 52.3592 15.2376 52.1938 14.7999C52.0284 14.3621 51.9494 13.8923 51.9618 13.4201C51.9618 12.4028 52.2781 11.568 52.935 10.8767C53.2394 10.5457 53.6035 10.2848 54.0051 10.1099C54.4067 9.93492 54.8374 9.84966 55.2708 9.85929C55.7209 9.85929 56.1588 9.9506 56.5724 10.1462C56.986 10.3419 57.3023 10.5897 57.5578 10.9028L57.643 10.8245L57.5578 10.7462L56.986 11.3593L57.059 11.4375L57.1442 11.3723C56.6941 10.7854 56.0493 10.4854 55.2708 10.4854C54.5408 10.4854 53.9204 10.7593 53.3973 11.3071C52.8742 11.8419 52.6066 12.5593 52.6066 13.4201C52.6066 14.281 52.8742 14.9854 53.3973 15.5332C53.9204 16.081 54.553 16.3549 55.2708 16.3549C56.025 16.3549 56.6697 16.081 57.1807 15.5332C57.5213 15.168 57.716 14.6593 57.7646 14.0332V13.9028H55.3924V13.2897H58.458V13.1723L58.3485 13.1984C58.385 13.368 58.3972 13.5375 58.3972 13.7071H58.6162C58.6162 13.5245 58.604 13.3419 58.5675 13.1593L58.5553 13.0549H55.1491V14.1375H57.643V14.0201H57.5213C57.4848 14.6071 57.3023 15.0506 57.0104 15.3636C56.5359 15.8723 55.9642 16.1201 55.2586 16.1201C54.5895 16.1201 54.0177 15.8593 53.5311 15.3636C53.0445 14.868 52.8012 14.2288 52.8012 13.4201C52.8012 12.6115 53.0445 11.9854 53.5311 11.4636C54.0177 10.968 54.5895 10.7202 55.2586 10.7202C55.9885 10.7202 56.5481 10.981 56.9617 11.5158L57.0469 11.6202L57.7038 10.9028L57.7768 10.8376L57.7159 10.7462C57.4245 10.3857 57.0577 10.1041 56.6454 9.92451C56.2106 9.72651 55.7431 9.62448 55.2708 9.62451C54.2975 9.62451 53.446 9.98973 52.7769 10.7202C52.4422 11.0683 52.1777 11.4864 51.9998 11.9486C51.822 12.4108 51.7345 12.9072 51.7429 13.4071C51.7429 14.4767 52.0835 15.3897 52.7769 16.1201C53.1022 16.4727 53.4911 16.7505 53.9199 16.9366C54.3487 17.1228 54.8083 17.2133 55.2708 17.2027C56.2805 17.2027 57.1199 16.8375 57.7524 16.1201L57.6795 16.0419L57.7524 16.1332C58.3242 15.5201 58.604 14.6984 58.604 13.6941H58.4945V13.7071ZM63.5431 10.7593H60.5504V13.0028H63.2511V13.8375H60.5504V16.081H63.5431V16.9419H59.711V9.89842H63.5431V10.7593Z" fill="white"/>
<path fill-rule="evenodd" clip-rule="evenodd" d="M63.5431 10.7593V10.6419H60.441V13.1201H63.1417V13.7201H60.441V16.1984H63.4336V16.8245H59.8206V10.0158H63.4336V10.7593H63.5431V10.6419V10.7723H63.6526V9.78101H59.6016V17.0592H63.6526V15.9636H60.66V13.9549H63.3607V12.8853H60.66V10.8767H63.6526V10.7593H63.531H63.5431ZM67.0954 16.9418H66.256V10.7593H64.4312V9.8984H68.9323V10.7593H67.1075V16.9418" fill="white"/>
<path fill-rule="evenodd" clip-rule="evenodd" d="M67.0955 16.9418V16.8245H66.3656V10.6419H64.5408V10.0158H68.823V10.6419H66.9982V16.9418H67.0955V16.8245V16.9549H67.2172V10.8767H69.0419V9.78101H64.3097V10.8767H66.1466V17.0592H67.205V16.9418H67.0955ZM72.2049 16.9418H73.0564V9.8984H72.2049V16.9418Z" fill="white"/>
<path fill-rule="evenodd" clip-rule="evenodd" d="M72.2047 16.9418H72.3142V10.0288H72.9346V16.8245H72.2047V16.9549H72.3142H72.1925V17.0592H73.1657V9.78101H72.0952V17.0592H72.2047V16.9418ZM76.791 16.9418H75.9394V10.7593H74.1146V9.8984H78.6157V10.7593H76.791V16.9418Z" fill="white"/>
<path fill-rule="evenodd" clip-rule="evenodd" d="M76.7908 16.9419V16.8245H76.0609V10.6419H74.2239V10.0158H78.5061V10.6419H76.6813V16.9419H76.7908V16.8245V16.9549H76.9003V10.8767H78.725V9.78105H74.0049V10.8767H75.8297V17.0593H76.9003V16.9419H76.7786H76.7908ZM82.9707 15.4419C83.4573 15.9636 84.0655 16.2245 84.7589 16.2245C85.4645 16.2245 86.0606 15.9636 86.5472 15.4419C87.0338 14.9202 87.2771 14.2419 87.2771 13.4202C87.2771 12.5984 87.0338 11.9332 86.5472 11.3984C86.0606 10.8767 85.4645 10.6158 84.7589 10.6158C84.0534 10.6158 83.4573 10.8767 82.9707 11.3984C82.4841 11.9202 82.2408 12.5984 82.2408 13.4202C82.2408 14.2419 82.4841 14.9202 82.9707 15.4419ZM87.1677 16.0289C86.5229 16.7462 85.72 17.0984 84.7589 17.0984C83.7979 17.0984 82.995 16.7462 82.3502 16.0289C82.0332 15.6862 81.7837 15.2787 81.6165 14.8305C81.4493 14.3824 81.3679 13.9027 81.377 13.4202C81.3673 12.9387 81.4477 12.4599 81.6136 12.0124C81.7794 11.5648 82.0274 11.1575 82.3427 10.8145C82.6581 10.4715 83.0344 10.1999 83.4495 10.0156C83.8645 9.83139 84.3098 9.73832 84.7589 9.74192C85.2081 9.73832 85.6534 9.83139 86.0684 10.0156C86.4835 10.1999 86.8598 10.4715 87.1751 10.8145C87.4905 11.1575 87.7384 11.5648 87.9043 12.0124C88.0702 12.4599 88.1506 12.9387 88.1409 13.4202C88.1409 14.4506 87.8124 15.3245 87.1677 16.0289Z" fill="white"/>
<path fill-rule="evenodd" clip-rule="evenodd" d="M82.9708 15.4419L82.8979 15.5201C83.4088 16.0679 84.0292 16.3549 84.7591 16.3549C85.489 16.3549 86.1216 16.0679 86.6204 15.5201C87.1313 14.9723 87.3868 14.2679 87.3868 13.4332C87.3868 12.5723 87.1313 11.868 86.6204 11.3201C86.3806 11.0509 86.0914 10.8378 85.7711 10.6941C85.4508 10.5505 85.1063 10.4794 84.7591 10.4854C84.0292 10.4854 83.4088 10.7723 82.8979 11.3201C82.6445 11.5965 82.4459 11.9251 82.3142 12.286C82.1825 12.6469 82.1203 13.0327 82.1314 13.4201C82.1314 14.2679 82.3869 14.9853 82.8979 15.5201L83.056 15.3636C82.8212 15.1082 82.6376 14.8041 82.5162 14.4699C82.3949 14.1357 82.3385 13.7785 82.3504 13.4201C82.3504 12.6375 82.5937 11.9853 83.056 11.4767C83.2763 11.232 83.5412 11.0386 83.8342 10.9085C84.1272 10.7783 84.442 10.7142 84.7591 10.7201C85.4404 10.7201 86 10.981 86.4622 11.4767C86.9367 11.9984 87.1678 12.6245 87.1678 13.4332C87.1678 14.2158 86.9245 14.8549 86.4622 15.3636C86 15.8723 85.4404 16.1201 84.7591 16.1201C84.442 16.126 84.1272 16.0619 83.8342 15.9318C83.5412 15.8016 83.2763 15.6082 83.056 15.3636L82.9708 15.4419ZM87.1678 16.0288L87.0948 15.9505C86.4622 16.6418 85.6958 16.981 84.7591 16.994C84.3253 16.9959 83.8956 16.9046 83.4953 16.7254C83.095 16.5463 82.7321 16.2831 82.4283 15.9512C82.1244 15.6193 81.8856 15.2255 81.7259 14.793C81.5663 14.3605 81.4891 13.8981 81.4989 13.4332C81.4875 12.9671 81.5634 12.5033 81.7223 12.0693C81.8812 11.6353 82.1197 11.24 82.4238 10.9067C82.7279 10.5734 83.0912 10.3089 83.4924 10.129C83.8935 9.94909 84.3243 9.85736 84.7591 9.85927C85.6958 9.85927 86.4622 10.1984 87.0827 10.9027C87.7153 11.594 88.0316 12.4288 88.0316 13.4201C88.0316 14.4245 87.7153 15.2592 87.0948 15.9505L87.253 16.1201C87.9099 15.3897 88.2505 14.4766 88.2505 13.4201C88.2603 12.9232 88.177 12.4292 88.0056 11.9674C87.8343 11.5056 87.5782 11.0853 87.2527 10.7314C86.9272 10.3776 86.5388 10.0973 86.1105 9.90713C85.6822 9.717 85.2227 9.62089 84.7591 9.62449C84.2966 9.62264 83.8384 9.72004 83.4115 9.91095C82.9846 10.1019 82.5977 10.3824 82.2734 10.7361C81.9492 11.0898 81.6943 11.5095 81.5237 11.9705C81.353 12.4314 81.2701 12.9243 81.2799 13.4201C81.2799 14.4766 81.6083 15.3766 82.2774 16.1201C82.9343 16.8505 83.7737 17.2158 84.7591 17.2158C85.7445 17.2158 86.5839 16.8505 87.253 16.1201L87.1678 16.0288ZM89.3332 16.9418V9.8984H90.3551L93.5424 15.3766H93.5789L93.5424 14.0201V9.8984H94.3939V16.9418H93.5059L90.1605 11.2027H90.124L90.1605 12.5593V16.9418H89.3211" fill="white"/>
<path fill-rule="evenodd" clip-rule="evenodd" d="M89.333 16.9418H89.4303V10.0288H90.2819L93.4813 15.5071H93.6881L93.6516 14.0201V10.0158H94.2721V16.8245H93.5665L90.2211 11.0853H90.0143L90.0508 12.5593V16.8245H89.3208V16.9549H89.4425H89.3208V17.0592H90.2697V12.5593L90.2332 11.1897H90.1238V11.3201H90.1602V11.1897L90.0751 11.2549L93.4448 17.0592H94.491V9.78101H93.4327V14.0201L93.4692 15.3766H93.5786V15.2592H93.5422V15.3897L93.6395 15.3114L90.4157 9.78101H89.2114V17.0592H89.333V16.9418Z" fill="white"/>
</svg>
