<svg width="72" height="71" viewBox="0 0 72 71" fill="none" xmlns="http://www.w3.org/2000/svg">
<g filter="url(#filter0_d_1_226)">
<path d="M44.2844 10H16.8538C13.0685 10 10 13.0475 10 16.8068V44.0493C10 47.8086 13.0685 50.8561 16.8538 50.8561H44.2844C48.0696 50.8561 51.1381 47.8086 51.1381 44.0493V16.8068C51.1381 13.0475 48.0696 10 44.2844 10Z" fill="#F58A8A"/>
</g>
<path d="M39.3125 32.625C37.5693 32.6267 35.8624 33.1236 34.3908 34.0579C32.9191 34.9922 31.7432 36.3255 31 37.9023C30.2568 36.3255 29.0809 34.9922 27.6092 34.0579C26.1376 33.1236 24.4307 32.6267 22.6875 32.625H17.875V33.5C17.875 38.566 21.9965 42.6875 27.0625 42.6875H34.9375C40.0035 42.6875 44.125 38.566 44.125 33.5V32.625H39.3125ZM27.0625 40.9375C23.2573 40.9375 20.1104 38.0654 19.6762 34.375H22.6875C26.4927 34.375 29.6396 37.2471 30.0738 40.9375H27.0625ZM34.9375 40.9375H31.9262C32.3604 37.2471 35.5073 34.375 39.3125 34.375H42.3238C41.8896 38.0654 38.7427 40.9375 34.9375 40.9375Z" fill="white"/>
<path d="M26.2546 30.3705C26.4201 31.3544 26.8895 32.2619 27.597 32.9655L27.8533 33.2218H28.2158C29.2136 33.2246 30.1872 32.9149 31 32.3361C31.8128 32.9149 32.7864 33.2247 33.7843 33.222H34.1467L34.403 32.9658C35.1105 32.2621 35.5799 31.3547 35.7454 30.3707C36.7294 30.2052 37.6369 29.7358 38.3405 29.0283L38.5967 28.7719V28.4095C38.5996 27.4116 38.2898 26.4379 37.711 25.6251C38.2899 24.8123 38.5997 23.8386 38.597 22.8408V22.4784L38.3407 22.2221C37.6371 21.5146 36.7296 21.0452 35.7456 20.8797C35.5801 19.8957 35.1107 18.9882 34.4032 18.2846L34.1469 18.0283H33.7845C32.7866 18.0255 31.8129 18.3352 31 18.914C30.1872 18.3352 29.2136 18.0254 28.2158 18.0281H27.8533L27.597 18.2844C26.8895 18.988 26.4201 19.8955 26.2546 20.8794C25.2706 21.0449 24.3631 21.5144 23.6595 22.2219L23.4033 22.4782V22.8406C23.4004 23.8385 23.7102 24.8122 24.289 25.6251C23.7101 26.4378 23.4003 27.4115 23.403 28.4093V28.7717L23.6593 29.028C24.363 29.7356 25.2705 30.205 26.2546 30.3705V30.3705ZM26.0503 25.0064C25.565 24.524 25.2567 23.892 25.1753 23.2126C25.7132 22.7896 26.3782 22.5606 27.0625 22.5626H27.9375V21.6876C27.9355 21.0033 28.1645 20.3384 28.5874 19.8005C29.2668 19.8819 29.8988 20.1902 30.3812 20.6755L31 21.2938L31.6187 20.6751C32.101 20.1899 32.7331 19.8816 33.4124 19.8001C33.8355 20.3381 34.0645 21.0032 34.0625 21.6876V22.5626H34.9375C35.6217 22.5606 36.2866 22.7896 36.8245 23.2125C36.7431 23.8918 36.4348 24.5239 35.9495 25.0062L35.3313 25.6251L35.95 26.2438C36.4353 26.7262 36.7436 27.3582 36.825 28.0375C36.287 28.4606 35.6219 28.6896 34.9375 28.6876H34.0625V29.5626C34.0645 30.2468 33.8355 30.9117 33.4126 31.4496C32.7332 31.3682 32.1012 31.0599 31.6188 30.5746L31 29.9563L30.3813 30.5748C29.8989 31.0601 29.2669 31.3684 28.5875 31.4498C28.1645 30.9119 27.9355 30.2469 27.9375 29.5626V28.6876H27.0625C26.3783 28.6895 25.7134 28.4605 25.1755 28.0377C25.2569 27.3583 25.5652 26.7263 26.0505 26.2439L26.6688 25.6251L26.0503 25.0064Z" fill="white"/>
<defs>
<filter id="filter0_d_1_226" x="0" y="0" width="71.1381" height="70.8561" filterUnits="userSpaceOnUse" color-interpolation-filters="sRGB">
<feFlood flood-opacity="0" result="BackgroundImageFix"/>
<feColorMatrix in="SourceAlpha" type="matrix" values="0 0 0 0 0 0 0 0 0 0 0 0 0 0 0 0 0 0 127 0" result="hardAlpha"/>
<feOffset dx="5" dy="5"/>
<feGaussianBlur stdDeviation="7.5"/>
<feColorMatrix type="matrix" values="0 0 0 0 0 0 0 0 0 0 0 0 0 0 0 0 0 0 0.15 0"/>
<feBlend mode="normal" in2="BackgroundImageFix" result="effect1_dropShadow_1_226"/>
<feBlend mode="normal" in="SourceGraphic" in2="effect1_dropShadow_1_226" result="shape"/>
</filter>
</defs>
</svg>
